<svg width="25" height="25" viewBox="0 0 25 25" fill="none" xmlns="http://www.w3.org/2000/svg">
<path fill-rule="evenodd" clip-rule="evenodd" d="M6.68182 10.8333C5.70406 10.8333 5.5 11.0252 5.5 11.9444V13.6111C5.5 14.5304 5.70406 14.7222 6.68182 14.7222H9.04545V21.3889C9.04545 22.3081 9.24951 22.5 10.2273 22.5H12.5909C13.5687 22.5 13.7727 22.3081 13.7727 21.3889V14.7222H16.4267C17.1683 14.7222 17.3594 14.5867 17.5631 13.9164L18.0696 12.2497C18.4185 11.1014 18.2035 10.8333 16.9332 10.8333H13.7727V8.05556C13.7727 7.44191 14.3018 6.94444 14.9545 6.94444H18.3182C19.2959 6.94444 19.5 6.75259 19.5 5.83333V3.61111C19.5 2.69185 19.2959 2.5 18.3182 2.5H14.9545C11.691 2.5 9.04545 4.98731 9.04545 8.05556V10.8333H6.68182Z" fill="white"/>
</svg>
