<svg width="84" height="85" viewBox="0 0 84 85" fill="none" xmlns="http://www.w3.org/2000/svg">
<rect y="0.594727" width="84" height="84" rx="8" fill="white" fill-opacity="0.08"/>
<g clip-path="url(#clip0_130_307)">
<path d="M54.8132 20.0967H28.8132C22.7372 20.0967 17.8132 25.0207 17.8132 31.0967V53.0967C17.8132 59.1627 22.7472 64.0967 28.8132 64.0967H54.8132C60.8792 64.0967 65.8132 59.1627 65.8132 53.0967V31.0967C65.8132 25.0207 60.8892 20.0967 54.8132 20.0967ZM36.8132 24.0967C38.4692 24.0967 39.8132 25.4407 39.8132 27.0967C39.8132 28.7527 38.4692 30.0967 36.8132 30.0967C35.1572 30.0967 33.8132 28.7527 33.8132 27.0967C33.8132 25.4407 35.1572 24.0967 36.8132 24.0967ZM26.8132 24.0967C28.4692 24.0967 29.8132 25.4407 29.8132 27.0967C29.8132 28.7527 28.4692 30.0967 26.8132 30.0967C25.1572 30.0967 23.8132 28.7527 23.8132 27.0967C23.8132 25.4407 25.1572 24.0967 26.8132 24.0967ZM59.8132 53.0967C59.8132 55.8527 57.5692 58.0967 54.8132 58.0967H28.8132C26.0572 58.0967 23.8132 55.8527 23.8132 53.0967V34.0967H59.8132V53.0967ZM27.8132 41.0967C27.8132 39.4387 29.1552 38.0967 30.8132 38.0967H40.8132C42.4712 38.0967 43.8132 39.4387 43.8132 41.0967C43.8132 42.7547 42.4712 44.0967 40.8132 44.0967H30.8132C29.1552 44.0967 27.8132 42.7547 27.8132 41.0967ZM27.8132 51.0967C27.8132 49.4387 29.1552 48.0967 30.8132 48.0967H40.8132C42.4712 48.0967 43.8132 49.4387 43.8132 51.0967C43.8132 52.7547 42.4712 54.0967 40.8132 54.0967H30.8132C29.1552 54.0967 27.8132 52.7547 27.8132 51.0967ZM47.8132 51.0967V41.0967C47.8132 39.4387 49.1552 38.0967 50.8132 38.0967H52.8132C54.4712 38.0967 55.8132 39.4387 55.8132 41.0967V51.0967C55.8132 52.7547 54.4712 54.0967 52.8132 54.0967H50.8132C49.1552 54.0967 47.8132 52.7547 47.8132 51.0967Z" fill="#407BFF"/>
</g>
<defs>
<clipPath id="clip0_130_307">
<rect width="48" height="48" fill="white" transform="translate(18 18.5947)"/>
</clipPath>
</defs>
</svg>
