<svg width="85" height="85" viewBox="0 0 85 85" fill="none" xmlns="http://www.w3.org/2000/svg">
<rect x="0.117188" y="0.594727" width="84" height="84" rx="8" fill="white" fill-opacity="0.08"/>
<g clip-path="url(#clip0_130_299)">
<path d="M42.1172 64.5947C48.7446 64.5947 54.1172 59.2221 54.1172 52.5947C54.1172 45.9673 48.7446 40.5947 42.1172 40.5947C35.4898 40.5947 30.1172 45.9673 30.1172 52.5947C30.1172 59.2221 35.4898 64.5947 42.1172 64.5947Z" fill="#FEC800"/>
<path d="M40.8832 36.6428L33.5292 23.9008C33.3536 23.5968 33.1012 23.3443 32.7971 23.1688C32.4931 22.9933 32.1482 22.9009 31.7972 22.9009C31.4461 22.9009 31.1013 22.9933 30.7972 23.1688C30.4932 23.3443 30.2407 23.5968 30.0652 23.9008L18.1172 44.5948H28.2652C29.5656 42.3452 31.3938 40.4458 33.5921 39.0604C35.7903 37.675 38.2927 36.8453 40.8832 36.6428Z" fill="#FEC800"/>
<path d="M44.1172 26.5947V36.7187C47.2951 37.1248 50.2786 38.4729 52.6836 40.5895C55.0885 42.7061 56.8047 45.4942 57.6112 48.5947H66.1172V26.5947H44.1172Z" fill="#FEC800"/>
</g>
<defs>
<clipPath id="clip0_130_299">
<rect width="48" height="48" fill="white" transform="translate(18.1172 18.5947)"/>
</clipPath>
</defs>
</svg>
