<svg width="84" height="85" viewBox="0 0 84 85" fill="none" xmlns="http://www.w3.org/2000/svg">
<rect y="0.594727" width="84" height="84" rx="8" fill="white" fill-opacity="0.08"/>
<g clip-path="url(#clip0_130_313)">
<path d="M66 42.5947C66 55.8347 55.24 66.5947 42 66.5947C28.76 66.5947 18 55.8347 18 42.5947C18 29.3547 28.76 18.5947 42 18.5947C43.46 18.5947 44.94 18.7347 46.36 18.9947C47.44 19.1947 48.16 20.2347 47.96 21.3147C47.76 22.3947 46.72 23.1147 45.64 22.9147C44.46 22.6947 43.22 22.5947 42 22.5947C30.98 22.5947 22 31.5747 22 42.5947C22 53.6147 30.98 62.5947 42 62.5947C53.02 62.5947 62 53.6147 62 42.5947C62 41.3747 61.88 40.1547 61.68 38.9547C61.48 37.8747 62.2 36.8347 63.28 36.6347C64.38 36.4347 65.4 37.1547 65.6 38.2347C65.86 39.6547 66 41.1347 66 42.5947ZM43.72 30.7147C44.82 30.8747 45.82 30.1147 45.98 29.0147C46.14 27.9147 45.38 26.9147 44.28 26.7547C43.52 26.6547 42.76 26.5947 42 26.5947C33.18 26.5947 26 33.7747 26 42.5947C26 51.4147 33.18 58.5947 42 58.5947C50.82 58.5947 58 51.4147 58 42.5947C58 41.8347 57.94 41.0747 57.84 40.3147C57.68 39.2147 56.68 38.4547 55.58 38.6147C54.48 38.7747 53.72 39.7747 53.88 40.8747C53.96 41.4347 54 42.0147 54 42.5947C54 49.2147 48.62 54.5947 42 54.5947C35.38 54.5947 30 49.2147 30 42.5947C30 35.9747 35.38 30.5947 42 30.5947C42.58 30.5947 43.16 30.6347 43.72 30.7147ZM39.5 36.7947C38.76 35.9747 37.5 35.8947 36.68 36.6347C34.98 38.1547 34.02 40.3347 34.02 42.5947C34.02 47.0147 37.6 50.5947 42.02 50.5947C44.3 50.5947 46.46 49.6147 47.98 47.9347C48.72 47.1147 48.64 45.8547 47.82 45.1147C47 44.3747 45.74 44.4547 45 45.2747C44.24 46.1147 43.16 46.6147 42.02 46.6147C39.82 46.6147 38.02 44.8147 38.02 42.6147C38.02 41.4747 38.5 40.3947 39.36 39.6347C40.18 38.8947 40.26 37.6347 39.52 36.8147L39.5 36.7947ZM42.6 39.1947C41.82 39.9747 41.82 41.2347 42.6 42.0147C43 42.4147 43.5 42.5947 44.02 42.5947C44.54 42.5947 45.04 42.3947 45.44 42.0147L54.86 32.5947H60.04C60.58 32.5947 61.08 32.3747 61.46 32.0147L65.46 28.0147C66.04 27.4347 66.2 26.5747 65.9 25.8347C65.6 25.0947 64.86 24.5947 64.06 24.5947H60.06V20.5947C60.06 19.7947 59.58 19.0547 58.82 18.7547C58.06 18.4347 57.22 18.6147 56.64 19.1947L52.64 23.1947C52.26 23.5747 52.06 24.0747 52.06 24.6147V29.7947L42.64 39.2147L42.6 39.1947Z" fill="#00D56D"/>
</g>
<defs>
<clipPath id="clip0_130_313">
<rect width="48" height="48" fill="white" transform="translate(18 18.5947)"/>
</clipPath>
</defs>
</svg>
