<svg width="169" height="29" viewBox="0 0 169 29" fill="none" xmlns="http://www.w3.org/2000/svg">
<path d="M14.008 0L17.153 9.6793H27.3304L19.0967 15.6614L22.2417 25.3407L14.008 19.3586L5.77431 25.3407L8.91931 15.6614L0.685601 9.6793H10.863L14.008 0Z" fill="#FFCC00"/>
<path d="M49.2541 0L52.3991 9.6793H62.5765L54.3428 15.6614L57.4878 25.3407L49.2541 19.3586L41.0204 25.3407L44.1654 15.6614L35.9317 9.6793H46.1091L49.2541 0Z" fill="#FFCC00"/>
<path d="M84.5002 0L87.6452 9.6793H97.8226L89.5889 15.6614L92.7339 25.3407L84.5002 19.3586L76.2665 25.3407L79.4115 15.6614L71.1778 9.6793H81.3552L84.5002 0Z" fill="#FFCC00"/>
<path d="M119.746 0L122.891 9.6793H133.068L124.835 15.6614L127.98 25.3407L119.746 19.3586L111.512 25.3407L114.657 15.6614L106.423 9.6793H116.601L119.746 0Z" fill="#FFCC00"/>
<path d="M154.992 1.61804L157.661 9.83381L157.774 10.1793H158.137H166.775L159.787 15.2569L159.493 15.4705L159.605 15.816L162.275 24.0317L155.286 18.9541L154.992 18.7406L154.698 18.9541L147.709 24.0317L150.379 15.816L150.491 15.4705L150.197 15.2569L143.208 10.1793H151.847H152.21L152.322 9.83381L154.992 1.61804Z" stroke="#FFCC00"/>
</svg>
