<svg width="25" height="25" viewBox="0 0 25 25" fill="none" xmlns="http://www.w3.org/2000/svg">
<g clip-path="url(#clip0_130_30)">
<path d="M24.488 6.91193C24.381 9.25293 22.749 12.4579 19.593 16.5259C16.33 20.7749 13.569 22.8999 11.311 22.8999C9.912 22.8999 8.728 21.6059 7.761 19.0179C7.115 16.6459 6.47 14.2739 5.824 11.9009C5.106 9.31393 4.336 8.01893 3.513 8.01893C3.333 8.01893 2.705 8.39793 1.63 9.15193L0.5 7.69493C1.685 6.65193 2.853 5.60993 4.003 4.56593C5.583 3.19793 6.769 2.47893 7.559 2.40593C9.427 2.22593 10.577 3.50493 11.008 6.24393C11.474 9.19893 11.797 11.0359 11.978 11.7549C12.516 14.2059 13.109 15.4299 13.756 15.4299C14.258 15.4299 15.013 14.6349 16.019 13.0449C17.024 11.4549 17.562 10.2449 17.635 9.41393C17.778 8.04193 17.24 7.35393 16.019 7.35393C15.444 7.35393 14.852 7.48593 14.243 7.74793C15.422 3.87693 17.676 1.99693 21.002 2.10393C23.468 2.17693 24.63 3.77893 24.488 6.91193Z" fill="white"/>
</g>
<defs>
<clipPath id="clip0_130_30">
<rect width="24" height="24" fill="white" transform="translate(0.5 0.5)"/>
</clipPath>
</defs>
</svg>
