<svg width="25" height="25" viewBox="0 0 25 25" fill="none" xmlns="http://www.w3.org/2000/svg">
<g clip-path="url(#clip0_130_37)">
<path d="M22.043 7.60434C22.057 7.81534 22.057 8.02734 22.057 8.24034C22.057 14.7473 17.103 22.2503 8.047 22.2503V22.2463C5.372 22.2503 2.752 21.4843 0.5 20.0393C0.889 20.0863 1.28 20.1093 1.672 20.1103C3.89 20.1123 6.044 19.3683 7.787 17.9983C5.68 17.9583 3.832 16.5843 3.187 14.5783C3.925 14.7203 4.685 14.6913 5.41 14.4943C3.112 14.0303 1.46 12.0113 1.46 9.66734C1.46 9.64634 1.46 9.62534 1.46 9.60534C2.145 9.98734 2.911 10.1983 3.695 10.2213C1.531 8.77634 0.863 5.89834 2.17 3.64834C4.67 6.72434 8.359 8.59434 12.318 8.79334C11.921 7.08334 12.464 5.29134 13.742 4.08834C15.725 2.22334 18.844 2.31934 20.709 4.30234C21.812 4.08534 22.869 3.68034 23.836 3.10734C23.468 4.24734 22.699 5.21534 21.671 5.83134C22.648 5.71434 23.601 5.45334 24.5 5.05534C23.839 6.04434 23.007 6.90734 22.043 7.60434Z" fill="white"/>
</g>
<defs>
<clipPath id="clip0_130_37">
<rect width="24" height="24" fill="white" transform="translate(0.5 0.5)"/>
</clipPath>
</defs>
</svg>
